<svg xmlns="http://www.w3.org/2000/svg" xmlns:xlink="http://www.w3.org/1999/xlink" width="110" zoomAndPan="magnify" viewBox="0 0 82.5 82.499998" height="110" preserveAspectRatio="xMidYMid meet" version="1.0"><defs><g/><clipPath id="a70ef80d3a"><path d="M 0 23.097656 L 34.519531 23.097656 L 34.519531 58 L 0 58 Z M 0 23.097656 " clip-rule="nonzero"/></clipPath><clipPath id="09dfbd6d25"><path d="M 27 32 L 34.519531 32 L 34.519531 46 L 27 46 Z M 27 32 " clip-rule="nonzero"/></clipPath></defs><g clip-path="url(#a70ef80d3a)"><path fill="#2cb1bc" d="M 17.195312 23.097656 C 16.625 23.097656 16.0625 23.125 15.496094 23.179688 C 14.933594 23.234375 14.371094 23.320312 13.816406 23.429688 C 13.257812 23.539062 12.710938 23.679688 12.167969 23.84375 C 11.625 24.007812 11.089844 24.199219 10.566406 24.414062 C 10.042969 24.632812 9.53125 24.875 9.03125 25.140625 C 8.53125 25.410156 8.042969 25.699219 7.574219 26.015625 C 7.101562 26.328125 6.644531 26.667969 6.207031 27.027344 C 5.769531 27.386719 5.351562 27.765625 4.949219 28.167969 C 4.546875 28.570312 4.167969 28.988281 3.808594 29.425781 C 3.449219 29.867188 3.109375 30.320312 2.796875 30.792969 C 2.480469 31.261719 2.1875 31.75 1.921875 32.25 C 1.652344 32.75 1.410156 33.261719 1.195312 33.785156 C 0.976562 34.308594 0.785156 34.84375 0.621094 35.386719 C 0.457031 35.929688 0.320312 36.476562 0.210938 37.035156 C 0.0976562 37.589844 0.015625 38.152344 -0.0390625 38.714844 C -0.0976562 39.28125 -0.125 39.84375 -0.125 40.414062 C -0.125 40.980469 -0.0976562 41.546875 -0.0390625 42.109375 C 0.015625 42.675781 0.0976562 43.234375 0.207031 43.789062 C 0.320312 44.347656 0.457031 44.894531 0.621094 45.4375 C 0.785156 45.980469 0.976562 46.515625 1.195312 47.039062 C 1.410156 47.5625 1.652344 48.074219 1.921875 48.574219 C 2.1875 49.074219 2.480469 49.5625 2.792969 50.03125 C 3.109375 50.503906 3.445312 50.960938 3.804688 51.398438 C 4.167969 51.835938 4.546875 52.257812 4.949219 52.65625 C 5.347656 53.058594 5.769531 53.4375 6.207031 53.796875 C 6.644531 54.160156 7.101562 54.496094 7.570312 54.8125 C 8.042969 55.125 8.527344 55.417969 9.027344 55.683594 C 9.527344 55.953125 10.042969 56.195312 10.566406 56.410156 C 11.089844 56.628906 11.621094 56.820312 12.164062 56.984375 C 12.707031 57.148438 13.257812 57.285156 13.8125 57.398438 C 14.371094 57.507812 14.929688 57.589844 15.496094 57.644531 C 16.058594 57.703125 16.625 57.730469 17.191406 57.730469 C 17.757812 57.730469 18.324219 57.703125 18.890625 57.644531 C 19.453125 57.589844 20.015625 57.507812 20.570312 57.398438 C 21.125 57.285156 21.675781 57.148438 22.21875 56.984375 C 22.761719 56.820312 23.292969 56.628906 23.820312 56.410156 C 24.34375 56.195312 24.855469 55.953125 25.355469 55.683594 C 25.855469 55.417969 26.339844 55.125 26.8125 54.8125 C 27.285156 54.496094 27.738281 54.160156 28.175781 53.800781 C 28.617188 53.4375 29.035156 53.058594 29.4375 52.65625 C 29.835938 52.257812 30.21875 51.835938 30.578125 51.398438 C 30.9375 50.960938 31.273438 50.503906 31.589844 50.035156 C 31.90625 49.5625 32.195312 49.078125 32.464844 48.578125 C 32.730469 48.074219 32.972656 47.5625 33.191406 47.039062 C 33.40625 46.515625 33.597656 45.984375 33.761719 45.441406 C 33.925781 44.898438 34.066406 44.347656 34.175781 43.792969 C 34.285156 43.234375 34.371094 42.675781 34.425781 42.109375 C 34.480469 41.546875 34.507812 40.980469 34.507812 40.414062 C 34.507812 39.847656 34.480469 39.28125 34.425781 38.714844 C 34.371094 38.152344 34.285156 37.589844 34.175781 37.035156 C 34.066406 36.480469 33.929688 35.929688 33.761719 35.386719 C 33.597656 34.84375 33.40625 34.3125 33.191406 33.785156 C 32.972656 33.261719 32.730469 32.75 32.464844 32.25 C 32.199219 31.75 31.90625 31.265625 31.589844 30.792969 C 31.277344 30.320312 30.9375 29.867188 30.578125 29.429688 C 30.21875 28.988281 29.839844 28.570312 29.4375 28.167969 C 29.035156 27.769531 28.617188 27.386719 28.179688 27.027344 C 27.742188 26.667969 27.285156 26.332031 26.8125 26.015625 C 26.34375 25.699219 25.855469 25.410156 25.355469 25.140625 C 24.855469 24.875 24.34375 24.632812 23.820312 24.414062 C 23.296875 24.199219 22.761719 24.007812 22.21875 23.84375 C 21.675781 23.679688 21.128906 23.539062 20.570312 23.429688 C 20.015625 23.320312 19.457031 23.234375 18.890625 23.179688 C 18.328125 23.125 17.761719 23.097656 17.195312 23.097656 Z M 17.195312 23.097656 " fill-opacity="1" fill-rule="nonzero"/></g><path fill="#ffffff" d="M 26.863281 36.140625 L 26.550781 36.199219 C 25.675781 36.359375 24.820312 36.28125 23.988281 35.960938 L 18.960938 34.023438 C 18.5 33.84375 18.027344 33.789062 17.535156 33.859375 C 17.046875 33.925781 16.605469 34.109375 16.210938 34.40625 L 11.597656 37.863281 C 11.507812 37.929688 11.464844 38.019531 11.464844 38.128906 C 11.464844 38.242188 11.507812 38.328125 11.597656 38.394531 C 12.027344 38.71875 12.511719 38.878906 13.046875 38.878906 C 13.585938 38.878906 14.070312 38.71875 14.5 38.394531 L 16.390625 36.980469 C 16.617188 36.8125 16.867188 36.679688 17.136719 36.589844 C 17.40625 36.5 17.683594 36.457031 17.96875 36.457031 C 18.253906 36.457031 18.53125 36.5 18.800781 36.589844 C 19.070312 36.679688 19.320312 36.8125 19.546875 36.980469 L 26.238281 42.03125 C 26.679688 42.351562 26.945312 42.78125 27.039062 43.316406 L 27.039062 43.332031 C 27.058594 43.429688 27.105469 43.511719 27.183594 43.578125 C 27.261719 43.644531 27.351562 43.675781 27.453125 43.671875 L 28.710938 43.671875 Z M 26.863281 36.140625 " fill-opacity="1" fill-rule="nonzero"/><path fill="#ffffff" d="M 26.09375 43.527344 C 26.054688 43.226562 25.914062 42.988281 25.667969 42.8125 L 18.960938 37.761719 C 18.667969 37.539062 18.335938 37.429688 17.96875 37.429688 C 17.597656 37.429688 17.265625 37.539062 16.972656 37.761719 L 15.085938 39.175781 C 14.789062 39.398438 14.46875 39.5625 14.121094 39.679688 C 13.773438 39.796875 13.414062 39.851562 13.046875 39.851562 C 12.683594 39.851562 12.324219 39.796875 11.976562 39.679688 C 11.628906 39.5625 11.308594 39.398438 11.011719 39.175781 C 10.648438 38.90625 10.476562 38.546875 10.492188 38.09375 C 10.515625 37.660156 10.703125 37.316406 11.054688 37.066406 L 14.292969 34.621094 C 14.363281 34.585938 14.40625 34.53125 14.429688 34.457031 C 14.449219 34.386719 14.445312 34.316406 14.40625 34.25 C 14.371094 34.179688 14.316406 34.136719 14.246094 34.113281 C 14.171875 34.09375 14.101562 34.097656 14.035156 34.132812 L 8.695312 36.003906 C 8.304688 36.140625 7.90625 36.222656 7.492188 36.253906 L 5.675781 43.667969 L 6.636719 43.667969 C 6.960938 43.667969 7.074219 43.722656 7.167969 43.851562 C 7.714844 44.609375 8.339844 45.292969 9.046875 45.898438 C 9.753906 46.507812 10.523438 47.027344 11.351562 47.453125 C 12.183594 47.878906 13.050781 48.203125 13.957031 48.421875 C 14.863281 48.640625 15.785156 48.75 16.71875 48.753906 L 16.75 48.753906 C 16.898438 48.753906 17.03125 48.710938 17.152344 48.625 C 17.269531 48.535156 17.351562 48.421875 17.394531 48.28125 C 17.507812 47.976562 17.433594 47.71875 17.183594 47.515625 L 16.214844 46.789062 C 16.109375 46.710938 16.039062 46.609375 16.015625 46.476562 C 15.988281 46.347656 16.007812 46.226562 16.078125 46.113281 C 16.15625 46 16.265625 45.929688 16.402344 45.90625 C 16.539062 45.882812 16.664062 45.914062 16.773438 45.996094 L 17.734375 46.714844 L 17.78125 46.753906 L 19.414062 47.980469 C 19.589844 48.113281 19.785156 48.175781 20.003906 48.175781 C 20.226562 48.175781 20.421875 48.113281 20.597656 47.980469 C 20.789062 47.84375 20.914062 47.660156 20.96875 47.429688 C 21.019531 47.238281 21.015625 47.046875 20.949219 46.855469 C 20.882812 46.667969 20.773438 46.511719 20.613281 46.390625 L 18.648438 44.929688 C 18.554688 44.859375 18.492188 44.765625 18.460938 44.652344 C 18.429688 44.539062 18.441406 44.425781 18.488281 44.320312 C 18.554688 44.179688 18.660156 44.09375 18.8125 44.054688 C 18.960938 44.019531 19.097656 44.046875 19.21875 44.140625 L 21.1875 45.625 L 21.199219 45.625 L 22.296875 46.449219 C 22.46875 46.582031 22.660156 46.652344 22.878906 46.664062 C 23.09375 46.671875 23.292969 46.621094 23.476562 46.503906 C 23.609375 46.414062 23.714844 46.300781 23.792969 46.160156 C 23.871094 46.023438 23.910156 45.871094 23.917969 45.710938 C 23.921875 45.554688 23.890625 45.402344 23.824219 45.257812 C 23.753906 45.113281 23.65625 44.992188 23.53125 44.894531 L 21.054688 43.027344 C 20.957031 42.957031 20.894531 42.867188 20.863281 42.753906 C 20.832031 42.636719 20.84375 42.527344 20.890625 42.417969 C 20.957031 42.28125 21.066406 42.195312 21.214844 42.15625 C 21.363281 42.121094 21.5 42.148438 21.621094 42.242188 L 24.105469 44.109375 L 24.117188 44.121094 L 24.476562 44.394531 C 24.695312 44.558594 24.9375 44.628906 25.207031 44.601562 C 25.476562 44.574219 25.699219 44.460938 25.878906 44.257812 C 26.054688 44.042969 26.125 43.800781 26.09375 43.527344 Z M 26.09375 43.527344 " fill-opacity="1" fill-rule="nonzero"/><path fill="#ffffff" d="M 1.664062 32.734375 C 0.773438 34.539062 0.214844 36.441406 -0.0117188 38.441406 C -0.242188 40.441406 -0.125 42.417969 0.332031 44.378906 L 4.140625 45.3125 L 6.910156 34.019531 Z M 1.664062 32.734375 " fill-opacity="1" fill-rule="nonzero"/><g clip-path="url(#09dfbd6d25)"><path fill="#ffffff" d="M 32.71875 32.734375 L 27.476562 34.019531 L 30.242188 45.308594 L 34.050781 44.371094 C 34.355469 43.070312 34.507812 41.75 34.507812 40.414062 C 34.511719 37.714844 33.914062 35.15625 32.71875 32.734375 Z M 32.71875 32.734375 " fill-opacity="1" fill-rule="nonzero"/></g><path fill="#2cb1bc" d="M 3.019531 44.144531 C 2.8125 44.144531 2.632812 44.070312 2.484375 43.921875 C 2.335938 43.777344 2.265625 43.597656 2.265625 43.386719 C 2.265625 43.179688 2.335938 43 2.484375 42.855469 C 2.632812 42.707031 2.8125 42.632812 3.019531 42.632812 C 3.230469 42.632812 3.40625 42.707031 3.554688 42.855469 C 3.703125 43 3.777344 43.179688 3.777344 43.386719 C 3.777344 43.597656 3.703125 43.777344 3.554688 43.921875 C 3.40625 44.070312 3.230469 44.144531 3.019531 44.144531 Z M 3.019531 44.144531 " fill-opacity="1" fill-rule="nonzero"/><path fill="#2cb1bc" d="M 31.246094 44.144531 C 31.039062 44.144531 30.859375 44.070312 30.710938 43.921875 C 30.566406 43.777344 30.492188 43.597656 30.492188 43.386719 C 30.492188 43.179688 30.566406 43 30.710938 42.855469 C 30.859375 42.707031 31.039062 42.632812 31.246094 42.632812 C 31.457031 42.632812 31.636719 42.707031 31.78125 42.855469 C 31.929688 43 32.003906 43.179688 32.003906 43.386719 C 32.003906 43.597656 31.929688 43.777344 31.78125 43.921875 C 31.636719 44.070312 31.457031 44.144531 31.246094 44.144531 Z M 31.246094 44.144531 " fill-opacity="1" fill-rule="nonzero"/><g fill="#2cb1bc" fill-opacity="1"><g transform="translate(34.573174, 47.846688)"><g><path d="M 3.5625 0.125 C 2.945312 0.125 2.390625 0.00390625 1.890625 -0.234375 C 1.398438 -0.472656 1.007812 -0.820312 0.71875 -1.28125 C 0.4375 -1.738281 0.296875 -2.296875 0.296875 -2.953125 L 0.296875 -6.296875 L 2.921875 -6.296875 L 2.921875 -3.109375 C 2.921875 -2.867188 2.96875 -2.675781 3.0625 -2.53125 C 3.164062 -2.394531 3.320312 -2.328125 3.53125 -2.328125 C 3.726562 -2.328125 3.875 -2.390625 3.96875 -2.515625 C 4.070312 -2.648438 4.125 -2.835938 4.125 -3.078125 L 4.125 -13.359375 L 6.8125 -13.359375 L 6.8125 -3.34375 C 6.8125 -2.644531 6.671875 -2.035156 6.390625 -1.515625 C 6.117188 -0.992188 5.738281 -0.585938 5.25 -0.296875 C 4.757812 -0.015625 4.195312 0.125 3.5625 0.125 Z M 3.5625 0.125 "/></g></g></g><g fill="#2cb1bc" fill-opacity="1"><g transform="translate(44.254319, 47.846688)"><g><path d="M 3.78125 0.125 C 2.695312 0.125 1.875 -0.203125 1.3125 -0.859375 C 0.757812 -1.515625 0.484375 -2.441406 0.484375 -3.640625 L 0.484375 -10 C 0.484375 -11.144531 0.757812 -12.007812 1.3125 -12.59375 C 1.875 -13.1875 2.695312 -13.484375 3.78125 -13.484375 C 4.851562 -13.484375 5.671875 -13.1875 6.234375 -12.59375 C 6.796875 -12.007812 7.078125 -11.144531 7.078125 -10 L 7.078125 -3.640625 C 7.078125 -2.429688 6.796875 -1.5 6.234375 -0.84375 C 5.671875 -0.195312 4.851562 0.125 3.78125 0.125 Z M 3.78125 -2.328125 C 4.019531 -2.328125 4.179688 -2.429688 4.265625 -2.640625 C 4.347656 -2.847656 4.390625 -3.140625 4.390625 -3.515625 L 4.390625 -10.046875 C 4.390625 -10.335938 4.347656 -10.570312 4.265625 -10.75 C 4.191406 -10.925781 4.035156 -11.015625 3.796875 -11.015625 C 3.347656 -11.015625 3.125 -10.679688 3.125 -10.015625 L 3.125 -3.5 C 3.125 -3.113281 3.171875 -2.820312 3.265625 -2.625 C 3.359375 -2.425781 3.53125 -2.328125 3.78125 -2.328125 Z M 3.78125 -2.328125 "/></g></g></g><g fill="#2cb1bc" fill-opacity="1"><g transform="translate(54.246245, 47.846688)"><g><path d="M 0.59375 -13.359375 L 4.21875 -13.359375 C 5.1875 -13.359375 5.890625 -13.117188 6.328125 -12.640625 C 6.773438 -12.160156 7 -11.382812 7 -10.3125 L 7 -9.71875 C 7 -8.4375 6.539062 -7.675781 5.625 -7.4375 C 6.1875 -7.289062 6.582031 -6.953125 6.8125 -6.421875 C 7.039062 -5.890625 7.15625 -5.191406 7.15625 -4.328125 C 7.15625 -2.898438 6.941406 -1.820312 6.515625 -1.09375 C 6.085938 -0.363281 5.320312 0 4.21875 0 L 0.59375 0 Z M 3.75 -8.328125 C 3.976562 -8.328125 4.132812 -8.410156 4.21875 -8.578125 C 4.300781 -8.753906 4.34375 -9 4.34375 -9.3125 L 4.34375 -10.65625 C 4.34375 -11.082031 4.148438 -11.296875 3.765625 -11.296875 L 3.203125 -11.296875 L 3.203125 -8.328125 Z M 3.46875 -2.34375 C 4.164062 -2.34375 4.515625 -2.675781 4.515625 -3.34375 L 4.515625 -5 C 4.515625 -5.40625 4.453125 -5.710938 4.328125 -5.921875 C 4.210938 -6.128906 4.003906 -6.234375 3.703125 -6.234375 L 3.203125 -6.234375 L 3.203125 -2.359375 Z M 3.46875 -2.34375 "/></g></g></g><g fill="#2cb1bc" fill-opacity="1"><g transform="translate(64.129399, 47.846688)"><g><path d="M 0.59375 -13.359375 L 4.21875 -13.359375 C 5.1875 -13.359375 5.890625 -13.117188 6.328125 -12.640625 C 6.773438 -12.160156 7 -11.382812 7 -10.3125 L 7 -9.71875 C 7 -8.4375 6.539062 -7.675781 5.625 -7.4375 C 6.1875 -7.289062 6.582031 -6.953125 6.8125 -6.421875 C 7.039062 -5.890625 7.15625 -5.191406 7.15625 -4.328125 C 7.15625 -2.898438 6.941406 -1.820312 6.515625 -1.09375 C 6.085938 -0.363281 5.320312 0 4.21875 0 L 0.59375 0 Z M 3.75 -8.328125 C 3.976562 -8.328125 4.132812 -8.410156 4.21875 -8.578125 C 4.300781 -8.753906 4.34375 -9 4.34375 -9.3125 L 4.34375 -10.65625 C 4.34375 -11.082031 4.148438 -11.296875 3.765625 -11.296875 L 3.203125 -11.296875 L 3.203125 -8.328125 Z M 3.46875 -2.34375 C 4.164062 -2.34375 4.515625 -2.675781 4.515625 -3.34375 L 4.515625 -5 C 4.515625 -5.40625 4.453125 -5.710938 4.328125 -5.921875 C 4.210938 -6.128906 4.003906 -6.234375 3.703125 -6.234375 L 3.203125 -6.234375 L 3.203125 -2.359375 Z M 3.46875 -2.34375 "/></g></g></g><g fill="#2cb1bc" fill-opacity="1"><g transform="translate(74.01255, 47.846688)"><g><path d="M 2.203125 0 L 2.203125 -4.40625 L 0.078125 -13.359375 L 2.71875 -13.359375 L 3.46875 -8.828125 L 4.21875 -13.359375 L 6.859375 -13.359375 L 4.71875 -4.40625 L 4.71875 0 Z M 2.203125 0 "/></g></g></g></svg>